<svg width="29" height="16" viewBox="0 0 29 16" fill="none" xmlns="http://www.w3.org/2000/svg">
<path fill-rule="evenodd" clip-rule="evenodd" d="M0 5C0 2.23858 2.23858 0 5 0H24C26.7614 0 29 2.23858 29 5V11C29 13.7614 26.7614 16 24 16H5C2.23858 16 0 13.7614 0 11V5Z" fill="#FFA116"/>
<path fill-rule="evenodd" clip-rule="evenodd" d="M6.64014 11.3336C6.79964 11.3336 6.93799 11.275 7.05518 11.1578C7.17236 11.0472 7.23096 10.9088 7.23096 10.7428V8.89221H8.62744C9.34359 8.89221 9.95394 8.63831 10.4585 8.13049C10.9663 7.62268 11.2202 7.01233 11.2202 6.29944C11.2202 5.58329 10.9663 4.97131 10.4585 4.4635C9.95394 3.95894 9.34359 3.70667 8.62744 3.70667C7.91455 3.70667 7.3042 3.95894 6.79639 4.4635C6.28857 4.97131 6.03467 5.58329 6.03467 6.29944V10.7428C6.03467 10.9088 6.09326 11.0472 6.21045 11.1578C6.32764 11.275 6.46598 11.3336 6.62549 11.3336H6.64014ZM8.62744 7.69592H7.23096V6.29944C7.23096 5.91207 7.36605 5.58167 7.63623 5.30823C7.90967 5.03479 8.24007 4.89807 8.62744 4.89807C9.01481 4.89807 9.34521 5.03479 9.61865 5.30823C9.88883 5.58167 10.0239 5.91207 10.0239 6.29944C10.0239 6.68681 9.88883 7.01558 9.61865 7.28577C9.34521 7.5592 9.01481 7.69592 8.62744 7.69592ZM13.2661 11.1578C13.1489 11.275 13.0106 11.3336 12.8511 11.3336H12.8364C12.6769 11.3336 12.5386 11.275 12.4214 11.1578C12.3042 11.0472 12.2456 10.9088 12.2456 10.7428V4.29749C12.2456 4.13472 12.3042 3.99475 12.4214 3.87756C12.5386 3.76363 12.6769 3.70667 12.8364 3.70667H12.8511C13.0106 3.70667 13.1489 3.76363 13.2661 3.87756C13.3833 3.99475 13.4419 4.13472 13.4419 4.29749V10.7428C13.4419 10.9088 13.3833 11.0472 13.2661 11.1578ZM16.9771 11.3336C17.6248 11.3336 18.1799 11.1025 18.6421 10.6403C19.1043 10.178 19.3354 9.62301 19.3354 8.97522V6.30432C19.3354 6.14156 19.2769 6.00159 19.1597 5.8844C19.049 5.76721 18.9106 5.70862 18.7446 5.70862H18.7349C18.5721 5.70862 18.4321 5.76721 18.3149 5.8844C18.1978 6.00159 18.1392 6.14156 18.1392 6.30432V8.97522C18.1392 9.29749 18.0269 9.57255 17.8022 9.80042C17.5744 10.025 17.2993 10.1373 16.9771 10.1373C16.6515 10.1373 16.3748 10.025 16.147 9.80042C15.9224 9.57255 15.8101 9.29749 15.8101 8.97522V6.30432C15.8101 6.14156 15.7515 6.00159 15.6343 5.8844C15.5171 5.76721 15.3787 5.70862 15.2192 5.70862H15.2046C15.0451 5.70862 14.9067 5.76721 14.7896 5.8844C14.6724 6.00159 14.6138 6.14156 14.6138 6.30432V8.97522C14.6138 9.62301 14.8449 10.178 15.3071 10.6403C15.7694 11.1025 16.326 11.3336 16.9771 11.3336ZM23.188 10.8356C22.8527 11.1676 22.4507 11.3336 21.9819 11.3336H20.7075C20.548 11.3336 20.4097 11.275 20.2925 11.1578C20.1753 11.0472 20.1167 10.9088 20.1167 10.7428V10.733C20.1167 10.5703 20.1753 10.4303 20.2925 10.3131C20.4097 10.1959 20.548 10.1373 20.7075 10.1373H22.0308C22.174 10.1373 22.2944 10.0885 22.3921 9.99084C22.4897 9.89319 22.5386 9.77275 22.5386 9.62952C22.5386 9.45048 22.4458 9.31539 22.2603 9.22424C22.2114 9.20146 21.938 9.12008 21.4399 8.9801C21.0526 8.86617 20.7645 8.71643 20.5757 8.53088C20.3055 8.26721 20.1704 7.89449 20.1704 7.41272C20.1704 6.94397 20.3364 6.54358 20.6685 6.21155C21.0037 5.87626 21.4058 5.70862 21.8745 5.70862H22.7729C22.9357 5.70862 23.0757 5.76721 23.1929 5.8844C23.3101 6.00159 23.3687 6.14156 23.3687 6.30432V6.31409C23.3687 6.4801 23.3101 6.61845 23.1929 6.72913C23.0757 6.84631 22.9357 6.90491 22.7729 6.90491H21.8257C21.6825 6.90491 21.562 6.95374 21.4644 7.05139C21.3667 7.1523 21.3179 7.27275 21.3179 7.41272C21.3179 7.60803 21.4123 7.75452 21.6011 7.85217C21.6662 7.88798 21.938 7.96936 22.4165 8.09631C22.8039 8.20699 23.092 8.35185 23.2808 8.53088C23.5509 8.78805 23.686 9.15426 23.686 9.62952C23.686 10.0983 23.52 10.5003 23.188 10.8356Z" fill="white"/>
</svg>
