<svg xmlns="http://www.w3.org/2000/svg" xmlns:xlink="http://www.w3.org/1999/xlink" viewBox="0 0 264 243.22"><defs><style>.cls-1,.cls-15,.cls-16,.cls-17,.cls-19,.cls-21,.cls-29,.cls-30,.cls-31,.cls-5{fill:none;}.cls-2{isolation:isolate;}.cls-3{clip-path:url(#clip-path);}.cls-4{fill:#1a4ced;}.cls-15,.cls-17,.cls-31,.cls-5{stroke:#fff;}.cls-15,.cls-17,.cls-21,.cls-5{stroke-linecap:round;stroke-linejoin:round;}.cls-21,.cls-29,.cls-30,.cls-31,.cls-5{stroke-width:0.5px;}.cls-10,.cls-11,.cls-22,.cls-6,.cls-8{mix-blend-mode:multiply;opacity:0.2;}.cls-6{fill:url(#linear-gradient);}.cls-7{fill:#35826f;}.cls-9{fill:#4ebfa5;}.cls-10{fill:url(#linear-gradient-2);}.cls-11{fill:url(#linear-gradient-3);}.cls-12{fill:#942754;}.cls-13{fill:#ffcf30;}.cls-14{fill:#ff1a79;}.cls-15,.cls-16{stroke-width:0.52px;}.cls-16{stroke:#942754;}.cls-16,.cls-19,.cls-29,.cls-30,.cls-31{stroke-miterlimit:10;}.cls-17{stroke-width:0.75px;}.cls-18{fill:#fff;}.cls-19{stroke:#b5b5b5;stroke-width:0.77px;}.cls-20{fill:#547cde;}.cls-21,.cls-30{stroke:#ffcf30;}.cls-23{fill:#b514ff;}.cls-24{fill:#8ab1ff;}.cls-25{fill:#7c2aff;}.cls-26{fill:#5283ff;}.cls-27{fill:#0c11ff;}.cls-28{fill:#252933;}.cls-29{stroke:#103094;}.cls-31{opacity:0.15;}.cls-32{fill:url(#linear-gradient-4);}.cls-33{fill:url(#linear-gradient-5);}.cls-34{fill:url(#linear-gradient-6);}.cls-35{fill:url(#linear-gradient-7);}</style><clipPath id="clip-path"><rect class="cls-1" x="-279.12" y="-57.66" width="582.74" height="341.45" rx="15.53"/></clipPath><linearGradient id="linear-gradient" x1="141.6" y1="205.6" x2="264.39" y2="205.6" gradientUnits="userSpaceOnUse"><stop offset="0" stop-color="#fff"/><stop offset="1"/></linearGradient><linearGradient id="linear-gradient-2" x1="101.35" y1="208.62" x2="101.35" y2="174.05" xlink:href="#linear-gradient"/><linearGradient id="linear-gradient-3" x1="176.8" y1="199.29" x2="176.8" y2="177.43" xlink:href="#linear-gradient"/><linearGradient id="linear-gradient-4" x1="154.6" y1="201.79" x2="154.6" y2="179.45" xlink:href="#linear-gradient"/><linearGradient id="linear-gradient-5" x1="132.66" y1="201.79" x2="132.66" y2="179.45" xlink:href="#linear-gradient"/><linearGradient id="linear-gradient-6" x1="106.57" y1="201.79" x2="106.57" y2="179.45" xlink:href="#linear-gradient"/><linearGradient id="linear-gradient-7" x1="84.63" y1="201.79" x2="84.63" y2="179.45" xlink:href="#linear-gradient"/></defs><g class="cls-2"><g id="OBJECTS"><g class="cls-3"><path class="cls-4" d="M23.94,106.5c5.63-3.68,11.45,3.09,14.26,9.54s5.32,13.44,12.08,15.42,10.46,3.12,12.54,8.92,1.93,7.55,6.41,10.79,9.13,9,9.79,15.43L55.64,177.26s-6-2.45-11.89-9.79S39.27,155.12,37.16,152s-9.58-4.55-11-10.51,1-10.23-2.08-16.73S19.48,109.41,23.94,106.5Z"/><path class="cls-5" d="M27.3,110.14C34.73,130,39,140.7,67.72,171.75"/><path class="cls-5" d="M34,112.3a41.51,41.51,0,0,1-.53,13.2"/><path class="cls-5" d="M27.05,129.08s1.22,2.27,12.43,7.57"/><path class="cls-5" d="M52.56,134s3.85,14.37.72,21.41"/><path class="cls-5" d="M42.13,162.1a35.25,35.25,0,0,0,18.1,1.39"/><path class="cls-4" d="M235.87,136.62c4.88,1.93,2.54,10.84.48,15.84s3.44,12.1-10.69,20.39l-17.44-10.57s4.21-12.24,11.05-14.7C226.32,145.06,229,133.9,235.87,136.62Z"/><path class="cls-5" d="M234.83,138.86s-6.5,15.89-17.88,28.72"/><path class="cls-5" d="M230.05,138.63s-1.57,5.64-.35,10.44"/><path class="cls-5" d="M234.57,157.93s-8.08,3-12.59,3.35"/><path class="cls-6" d="M114.1,177H236.89s-5.4,12.17-17.09,12.79c0,0,1.07,12.58-9.43,16.21-10.86,3.76-14.62,3.67-23.6,13.37S170.07,235,155,234.11,123.29,221.45,114.1,177Z"/><path class="cls-7" d="M114.1,177H236.89s-5.4-12.17-17.09-12.8c0,0,1.07-12.57-9.43-16.21-10.86-3.76-14.62-3.66-23.6-13.37s-16.7-15.55-31.74-14.71S123.29,132.59,114.1,177Z"/><polygon class="cls-8" points="182.54 29.03 182.54 53.6 173.61 59.24 182.54 58.85 182.54 63.55 219.28 63.55 219.28 29.03 182.54 29.03"/><path class="cls-9" d="M29.74,180.68H173S172.16,165.45,155,159s-17.54-6.05-23.18-13.57-12.46-11.48-20.32-10.65-12,3.76-12,3.76-11.77-4-19.91.84S63.57,159,63.57,159,30.79,163.34,29.74,180.68Z"/><path class="cls-10" d="M29.74,180.68H173s-.79,15.24-17.92,21.71-17.54,6.05-23.18,13.57-12.46,11.49-20.32,10.65-12-3.76-12-3.76-11.77,4-19.91-.83-16.08-19.63-16.08-19.63S30.79,198,29.74,180.68Z"/><path class="cls-11" d="M192.21,185.18a23.09,23.09,0,0,1-13.13,5.53v41.47h-4.56V190.71a23.12,23.12,0,0,1-13.13-5.53,1,1,0,0,1,.62-1.69h29.58A1,1,0,0,1,192.21,185.18Z"/><rect class="cls-4" x="174.52" y="135.66" width="4.56" height="43.57"/><polygon class="cls-8" points="179.08 154.69 179.08 135.66 174.52 135.66 174.52 149.36 179.08 154.69"/><path class="cls-4" d="M190.86,137H162.74a2.17,2.17,0,0,1-1.92-2l-.61-3.75c-.25-1.59.68-3.1,1.92-3.1h29.34c1.25,0,2.18,1.51,1.92,3.1l-.61,3.75A2.17,2.17,0,0,1,190.86,137Z"/><path class="cls-4" d="M176.8,177a23.32,23.32,0,0,0-15.41,5.64,1,1,0,0,0,.62,1.69h29.58a1,1,0,0,0,.62-1.69A23.3,23.3,0,0,0,176.8,177Z"/><path class="cls-4" d="M192.21,182.66a23.09,23.09,0,0,0-13.13-5.53V135.66h-4.56v41.47a23.12,23.12,0,0,0-13.13,5.53,1,1,0,0,0,.62,1.69h29.58A1,1,0,0,0,192.21,182.66Z"/><rect class="cls-12" x="58.99" y="121.18" width="5.17" height="2.64" rx="0.66"/><path class="cls-13" d="M69.71,102.35a8.14,8.14,0,0,0-16.27,0,12.08,12.08,0,0,0,1.32,5.17,15.08,15.08,0,0,1,1.64,6.12l.11,1.67H66.64l.11-1.67a15.08,15.08,0,0,1,1.64-6.12A12.08,12.08,0,0,0,69.71,102.35Z"/><path class="cls-14" d="M56.19,115.31H67a0,0,0,0,1,0,0v5.79a1.23,1.23,0,0,1-1.23,1.23H57.42a1.23,1.23,0,0,1-1.23-1.23v-5.79A0,0,0,0,1,56.19,115.31Z"/><path class="cls-15" d="M63.53,108.88v-4.53h0c0-1.64-.29-2.31-.63-2.31-.17,0-.33.17-.44.57-.11-.4-.27-.57-.44-.57s-.33.17-.45.57c-.11-.4-.27-.57-.44-.57s-.33.17-.44.57c-.11-.4-.27-.57-.44-.57-.34,0-.61.67-.63,2.31h0v4.53"/><line class="cls-16" x1="56.19" y1="116.89" x2="66.96" y2="116.89"/><line class="cls-16" x1="56.19" y1="118.18" x2="66.96" y2="118.18"/><line class="cls-16" x1="56.19" y1="119.46" x2="66.96" y2="119.46"/><line class="cls-16" x1="56.19" y1="120.74" x2="66.96" y2="120.74"/><line class="cls-17" x1="61.8" y1="87.43" x2="61.8" y2="90.98"/><line class="cls-17" x1="53.96" y1="89.53" x2="55.74" y2="92.6"/><line class="cls-17" x1="48.22" y1="95.27" x2="51.3" y2="97.04"/><line class="cls-17" x1="71.91" y1="108.94" x2="74.99" y2="110.72"/><line class="cls-17" x1="46.12" y1="103.1" x2="49.67" y2="103.1"/><line class="cls-17" x1="73.48" y1="103.1" x2="77.03" y2="103.1"/><line class="cls-17" x1="48.22" y1="110.94" x2="51.3" y2="109.17"/><line class="cls-17" x1="71.91" y1="97.26" x2="74.99" y2="95.49"/><line class="cls-17" x1="67.64" y1="92.99" x2="69.41" y2="89.92"/><polygon class="cls-18" points="65.26 79.41 69.47 70.14 59.33 71.03 61.19 73.67 52.27 79.22 55.19 83.34 63.39 76.78 65.26 79.41"/><polygon class="cls-18" points="228.26 60 224.04 50.73 234.19 51.62 232.32 54.25 241.24 59.81 238.32 63.92 230.12 57.36 228.26 60"/><path class="cls-18" d="M40.67,55.05H93.08s.28-13.43-12.53-11.9c0,0-3.13-7.79-13.36-6s-10.3,9.67-10.3,9.67-7.45-2.23-9.54,4.87C47.35,51.71,41.57,52.06,40.67,55.05Z"/><path class="cls-18" d="M103.72,26.38l-1,.82-1,.82a33.79,33.79,0,0,1,3.12,9.08c1.87-.46,4.39,2.48,4.39,2.48l4.18-3.36s-2.32-3.09-1.46-4.81A33.68,33.68,0,0,1,103.72,26.38Z"/><line class="cls-19" x1="102.7" y1="27.2" x2="107.89" y2="33.67"/><path class="cls-19" d="M109.1,33.67A1,1,0,0,1,109,35a1,1,0,1,1-1.19-1.49A.94.94,0,0,1,109.1,33.67Z"/><rect class="cls-20" x="109.68" y="37.31" width="6.55" height="5.37" transform="translate(-0.2 79.44) rotate(-38.71)"/><path class="cls-4" d="M112.08,44.14l17.61,22c.29.37,1.67-.26,3.08-1.39s2.32-2.34,2-2.7l-17.61-22Z"/><path class="cls-21" d="M110.24,48.72c-4.38,9.81-15,19-24.22,18.48-7.9-.45-7.76-4.63-6.68-6.16,1.3-1.85,5.84-1.65,6,2.88s-2.57,9.44-6.82,13.72a36.63,36.63,0,0,0-6.56,9.29"/><path class="cls-21" d="M119.22,36.89c2.92-5.5,8.87-10.41,15-12.71S145.84,19.9,147,16.25s-2.4-6.06-6.26-4.28-3.24,9.19,5.84,8.56,25.9-2.92,30.18,5"/><polygon class="cls-13" points="181.33 27.2 181.33 51.77 172.4 57.4 181.33 57.02 181.33 61.72 218.07 61.72 218.07 27.2 181.33 27.2"/><circle class="cls-18" cx="196.03" cy="39.95" r="8.32"/><rect class="cls-18" x="196.03" y="39.95" width="14.13" height="14.13"/><path class="cls-14" d="M196,48.27A8.33,8.33,0,0,0,204.35,40H196Z"/><g class="cls-22"><rect x="205.33" y="69.77" width="28.23" height="62.82" rx="4.83"/></g><rect class="cls-18" x="203.8" y="68.07" width="28.23" height="62.82" rx="4.83"/><path class="cls-13" d="M215.77,77.08a3.26,3.26,0,1,1-3.26-3.26A3.26,3.26,0,0,1,215.77,77.08Z"/><circle class="cls-14" cx="223.31" cy="77.08" r="3.26"/><path class="cls-7" d="M215.77,87.14a3.26,3.26,0,1,1-3.26-3.26A3.26,3.26,0,0,1,215.77,87.14Z"/><path class="cls-23" d="M226.57,87.14a3.26,3.26,0,1,1-3.26-3.26A3.26,3.26,0,0,1,226.57,87.14Z"/><path class="cls-24" d="M215.77,97.2a3.26,3.26,0,1,1-3.26-3.26A3.26,3.26,0,0,1,215.77,97.2Z"/><path class="cls-25" d="M226.57,97.2a3.26,3.26,0,1,1-3.26-3.26A3.26,3.26,0,0,1,226.57,97.2Z"/><path class="cls-26" d="M215.77,107.26a3.26,3.26,0,1,1-3.26-3.26A3.26,3.26,0,0,1,215.77,107.26Z"/><circle class="cls-27" cx="223.31" cy="107.26" r="3.26"/><path class="cls-24" d="M222.32,118l-2.42-2.42-6.77,6.78a2.06,2.06,0,0,0-.57,1.84h0a.65.65,0,0,1-.17.56l-.62.61a.56.56,0,0,0,0,.76h0a.56.56,0,0,0,.76,0l.61-.62a.65.65,0,0,1,.56-.17h0a2.06,2.06,0,0,0,1.84-.57Z"/><path class="cls-14" d="M223.3,117.67l-.44-.44.89-.89a1.55,1.55,0,0,0-2.19-2.19l-.89.89-.44-.44a.46.46,0,0,0-.65,0,.47.47,0,0,0,0,.66l3.06,3.06a.47.47,0,0,0,.66,0A.46.46,0,0,0,223.3,117.67Z"/><path class="cls-4" d="M139.07,173.1l-.56,6.83s-8.35,3.34-8.35,4.45,14.75,1.46,15.31,0,1.25-11.28,1.25-11.28Z"/><path class="cls-4" d="M122,173.1l-2.1,6.83s-8.35,3.34-8.35,4.45,14.75,1.46,15.31,0,2.79-11.28,2.79-11.28Z"/><path class="cls-13" d="M169.23,111.16s-32.78,1.74-37.1,11.34-11.27,52-11.27,52h9.22l12.32-45.21s32.57-1,39.78-4.28,10-13.88,10-13.88Z"/><path class="cls-8" d="M134.11,159.73l8.29-30.41s32.57-1,39.78-4.28,10-13.88,10-13.88h-23s-32.78,1.74-37.1,11.34a39.37,39.37,0,0,0-1.57,4.45Z"/><path class="cls-13" d="M192.2,111.16a20.38,20.38,0,0,1,0,11.59c-1.88,6.26-8.77,7.72-14.72,7.72H157.63a3.15,3.15,0,0,0-3.1,2.64l-6.81,41.42H137.07s1.15-37.77,3.55-46c3.62-12.46,12.95-13,35.61-15Z"/><path class="cls-4" d="M153.94,69.29c-4.28,3.65-6.47,29.23-6.47,29.23L129.3,102.7v5.43l19.4-1.07a6.76,6.76,0,0,0,6.27-5.47l3.57-18.41Z"/><path class="cls-18" d="M152.63,105.62s-4.52.81-6.42,1.31c-1.66.43-9.27,4.49-9.27,5.35s5.22.57,5.22.57,5.3-1.28,6.09-2.89l5.35-.34Z"/><path class="cls-8" d="M155.37,99.56l3.17-16.38-4.6-13.89c-1.87,1.6-3.34,7.38-4.4,13.39Z"/><path class="cls-4" d="M163.59,64.28c6.12-.88,14.52-.42,18.59,4.8s9.39,27.77,10,33.51,3.34,9.3-2.09,9.3h-21.4c-5,0-5.22-.63-5.12-6.16s-.73-11.18-6.26-20.36S151.69,72,153.57,69.29,160.64,64.7,163.59,64.28Z"/><path class="cls-8" d="M163.59,105.73c-.1,5.53.11,6.16,5.12,6.16h21.4c5.43,0,2.72-3.55,2.09-9.3s-5.95-28.29-10-33.51a8.54,8.54,0,0,0-.74-.84l-18.21,31.7A32.16,32.16,0,0,1,163.59,105.73Z"/><path class="cls-4" d="M178.75,66.7c6.17.52,5.72,16.27,5.72,21.69s.11,16-5.22,17.65-26.83,4.7-26.83,4.7l-.79-5.33,21.77-7.2s.42-13.47.53-18.06S172.82,66.2,178.75,66.7Z"/><path class="cls-4" d="M153.79,53.69c.81,1.85.4,3.82-.92,4.41s-3.07-.44-3.88-2.29-.41-3.82.92-4.4S153,51.84,153.79,53.69Z"/><path class="cls-18" d="M150.6,53.21a66.8,66.8,0,0,0,2.53,8c.63,1.56,2.71,2,5.48,1.22,0,0,1.07,3.17,1.8,4.83s8.51.61,7.57-2.31-2.16-6.29-2.16-6.29,3.25-14.59-7-15.54S147.73,51.52,150.6,53.21Z"/><path class="cls-28" d="M155.18,46.52s2.42,3.5,6.44,3.56c0,0,.82,6.08,4.2,8.6,0,0,5.22-2.52,3.38-5.59,0,0,4.52-2.64-.89-7.86,0,0,3.35-1.24,3.22-2.65s-6.34-.47-6.34-.47-7.1-9.47-11.73-8.6c-2.61.49-3.05,4.6-3.05,4.6s-5.48-2.14-7.65.86,2.8,8.6,2.8,8.6-2.14.67-2.1,2.33c.09,3.3,7.14,3.31,7.14,3.31l-.19-2.08s2,.49,1.84-.19A5,5,0,0,0,151,49.35S154.36,48.49,155.18,46.52Z"/><ellipse class="cls-4" cx="164.3" cy="52.85" rx="3.66" ry="2.62" transform="translate(79.98 203.43) rotate(-78.58)"/><path class="cls-4" d="M165.11,52.64a.83.83,0,0,1-.22,0,.84.84,0,0,1-.59-1c1.19-4.43.27-10.61.26-10.67a.83.83,0,0,1,1.65-.25c0,.26,1,6.57-.3,11.36A.83.83,0,0,1,165.11,52.64Z"/><polyline class="cls-29" points="173.89 75.37 173.41 98.21 151.63 105.41"/><path class="cls-28" d="M138.06,114.25H94.65L87.27,81.94a1.45,1.45,0,0,1,1.42-1.78h39.83a2.19,2.19,0,0,1,2.14,1.7Z"/><rect class="cls-28" x="112.1" y="112.4" width="48.79" height="1.84"/><polygon class="cls-18" points="95.78 118.26 84.24 192.32 81.32 192.32 89.38 118.26 95.78 118.26"/><polygon class="cls-18" points="109.84 184.87 105.96 118.26 99.56 118.26 106.57 184.87 109.84 184.87"/><polygon class="cls-18" points="143.81 118.26 132.28 192.32 129.35 192.32 137.41 118.26 143.81 118.26"/><polygon class="cls-18" points="157.88 184.87 153.99 118.26 147.59 118.26 154.6 184.87 157.88 184.87"/><g class="cls-22"><polygon points="95.03 123.09 95.78 118.25 89.38 118.25 88.98 121.94 95.03 123.09"/><polygon points="105.96 118.25 99.56 118.25 100.17 124.07 106.37 125.25 105.96 118.25"/></g><g class="cls-22"><polygon points="143.07 123.09 143.82 118.25 137.42 118.25 137.02 121.94 143.07 123.09"/><polygon points="154 118.25 147.59 118.25 148.21 124.07 154.41 125.25 154 118.25"/></g><rect class="cls-18" x="78.42" y="114.25" width="82.35" height="4.01"/><line class="cls-30" x1="78.42" y1="116.87" x2="160.9" y2="116.87"/><line class="cls-31" x1="128.35" y1="82.25" x2="135.85" y2="114.25"/><path class="cls-14" d="M116.4,97.05a5,5,0,1,1-5-5A5,5,0,0,1,116.4,97.05Z"/><g class="cls-22"><polygon class="cls-32" points="156.06 216 157.88 184.88 154.6 184.88 151.32 216 156.06 216"/><polygon class="cls-33" points="135.97 216 132.28 192.32 129.35 192.32 131.93 216 135.97 216"/><polygon class="cls-34" points="108.03 216 109.84 184.88 106.57 184.88 103.29 216 108.03 216"/><polygon class="cls-35" points="87.93 216 84.24 192.32 81.32 192.32 83.9 216 87.93 216"/></g><path class="cls-17" d="M129.66,37.17a2.91,2.91,0,1,1-2.9-2.91A2.9,2.9,0,0,1,129.66,37.17Z"/><path class="cls-17" d="M51.13,65.57a2.91,2.91,0,1,1-2.91-2.9A2.91,2.91,0,0,1,51.13,65.57Z"/><path class="cls-17" d="M115.55,68.48a2.91,2.91,0,1,1-2.91-2.91A2.9,2.9,0,0,1,115.55,68.48Z"/></g></g></g></svg>