<svg id="图层_1" data-name="图层 1" xmlns="http://www.w3.org/2000/svg" xmlns:xlink="http://www.w3.org/1999/xlink" viewBox="0 0 343.55 213"><defs><style>.cls-1{fill:#41a981;}.cls-2{fill:#64da7d;}.cls-3{fill:#51bd7e;}.cls-4,.cls-6{fill:none;stroke-linecap:round;stroke-linejoin:round;}.cls-4{stroke:#fff;}.cls-5{fill:#99f;}.cls-6{stroke:#99f;}.cls-7{fill:#f0e0a2;}.cls-8{fill:#f1ba74;}.cls-9{fill:#d99b9c;}.cls-10{fill:#f3ac84;}.cls-11{fill:#f3b69c;}.cls-12{fill:#353341;}.cls-13{fill:#e0b69c;}.cls-14{fill:#262b3a;}.cls-15{fill:#4a567b;}.cls-16{fill:#35567b;}.cls-17{fill:#153c69;}.cls-18{fill:#f29b9c;}.cls-19{fill:url(#未命名的渐变_3);}.cls-20{fill:url(#未命名的渐变_4);}.cls-21{fill:#074359;}.cls-22{fill:#c60;}.cls-23{fill:#f47873;}.cls-24{fill:#d9d2c7;}.cls-25{fill:#49495c;}</style><linearGradient id="未命名的渐变_3" x1="117.38" y1="91.37" x2="175.45" y2="91.37" gradientTransform="matrix(1, 0, 0, -1, -38, 271.06)" gradientUnits="userSpaceOnUse"><stop offset="0" stop-color="#074359"/><stop offset="1" stop-color="#20315d"/></linearGradient><linearGradient id="未命名的渐变_4" x1="110.5" y1="100.72" x2="121.55" y2="125" xlink:href="#未命名的渐变_3"/></defs><g id="Layer0_0_FILL" data-name="Layer0 0 FILL"><path class="cls-1" d="M347.58,48.66a12,12,0,0,0-2.25,0,17.69,17.69,0,0,0-13.8,5.8,15.82,15.82,0,0,0-4.6,11.25,22.17,22.17,0,0,0,.45,4.35q.39,1.8,1.15,22.1.5,16.35-20.25,23.6l7.55,16.55a130.2,130.2,0,0,0,15-15.55q7.85-9.75,8.95-27.35-2.65-18.25.75-27.6,3.9-7.7,13.7-8.25,5.64.75,11.3,6.6a21.36,21.36,0,0,0-2.85-3.75A22.21,22.21,0,0,0,347.58,48.66Z" transform="translate(-24.53 -11.21)"/><path class="cls-2" d="M368.08,69.91a20.53,20.53,0,0,0-.65-5.15,18.35,18.35,0,0,0-1.9-4.6q-5.65-5.85-11.3-6.6-9.81.55-13.7,8.25-3.4,9.34-.75,27.6-1.11,17.6-8.95,27.35a130.2,130.2,0,0,1-15,15.55l2.9,6.4Q366.58,122.36,368.08,73C368,72,368,70.94,368.08,69.91Z" transform="translate(-24.53 -11.21)"/></g><g id="Layer0_1_FILL" data-name="Layer0 1 FILL"><path class="cls-2" d="M319.08,46.56q-5.2-12.11-20.3-16.4-16.26,3.1-18.8,14.45-7.86,35.15-6.55,63.3,1.59,34.91,10.75,58.55l28.15,3.2q12-44.9,12.25-75.9Q324.88,60.21,319.08,46.56Z" transform="translate(-24.53 -11.21)"/><path class="cls-3" d="M254.88,59.36a.63.63,0,0,0,.1.7l15.35,117h39.95q1.05-3.7,2.05-7.35l-28.15-3.2q-9.15-23.65-10.75-58.55-1.31-28.15,6.55-63.3,2.55-11.36,18.8-14.45-1.86-.5-3.9-.9-18.45-3.65-30.45,4.15-9.3,5.81-10.1,17.4a8.37,8.37,0,0,0-.05,2.45A36.93,36.93,0,0,0,254.88,59.36Z" transform="translate(-24.53 -11.21)"/></g><g id="Layer0_2_FILL" data-name="Layer0 2 FILL"><path class="cls-1" d="M223.68,105.41a26,26,0,0,0-6.5,16,20,20,0,0,0,.55,6.9,7.85,7.85,0,0,0,.8,2.05,13,13,0,0,0,2,3.5c.46.63,1,1.32,1.55,2.05q20.79,25.8,57.25,14.9c0-.47,0-.92-.05-1.35q-31.11.75-38.65-5.4-17.46-12.3-16.75-24.6.65-13.6,11.1-21a16.87,16.87,0,0,0-6.75,2.9A17.85,17.85,0,0,0,223.68,105.41Z" transform="translate(-24.53 -11.21)"/><path class="cls-2" d="M239,98.36a12.78,12.78,0,0,0-4.05,0q-10.46,7.4-11.1,21-.7,12.3,16.75,24.6,7.55,6.15,38.65,5.4-.9-13.6-12.1-14-12-.41-14.3-13T250,108.11a23.33,23.33,0,0,0-1.7-3.75A11.88,11.88,0,0,0,239,98.36Z" transform="translate(-24.53 -11.21)"/></g><path id="Layer0_3_1_STROKES" data-name="Layer0 3 1 STROKES" class="cls-4" d="M276.33,45.21l2.1-3.55m-14.6,7.1L262,47m13.2-13.6.7-3.55m-9.6,5.35-2.15-3.9m8.55,26.4L271,54.11m9.25,14.25-1.4,2.15m-23.9-3.2-2.85-.7m7.1,13.9L257,78.36m15.35,6-4.25.4m11.75,5.35-2.15-6.8m-11.05,2.5-5.7,3.9m2.85-31h-2.5m10,17.85-3.2-2.9m-5.75,2.15-3.2-4.25m44.95-29.95,5-.4m-1.1-3.2,4.3-3.9m-19.6-5v-2.5m1.75,12.85,4.3-3.95m14.6,15.35h3.25m-11.05,8.9,3.2,3.25m11.4,4.25,2.15-1.4m-33.2-2.85.4-2.15m-.75-10.7h4m6,20.3h-6m1,19.65,6.05-1.1m6.1-3.9,7.1-1.45m-6-7.1h-6.4m18.15-2.15,1.45-2.15m39.25-2.85,4.25,1.8m-11.75,0h-4.65m6.8-15.35,6.05-5.35m-28.2,14.6-3.55-5m3.2-5.35v-2.1m8.2,17.1-1,3.2m3.9,19.65-3.2-1.8m-5.7,1,.35,5.7m-3.2-13.55-.35,3.25m3.9-9.65-2.85.35m6.8,6-2.5-1.4m17.45,4.65,1.1,3.2m-2.5,5.7-4.3.7M348,77.66h3.6M344.78,83l3.55,3.55m10,9.65,2.5-.35m-3.55-11.8,3.2,5.7M331.23,73.71l-3.2.75m17.85-8.95-1.8-3.9m-20.7,28.15,5.7,7.5m-22.8-44.9-2.85-2.9M348,51.61l4.3-2.85m-11.75,2.85.35-2.5M283.43,36.66l1.8-2.85M355.83,108l3.6-2.15m-9.3,11.45,5.7-1.8m-22.1-7.85-8.2-.7m16.05-6.8v3.6m-4.3,16.75h5m-13.9-10-1.05,9m3.55,4.25,1.05-3.55m5-3.2-1.05,2.1m-1.45,6.8L330.88,128m-3.2,5,9.25,1.4m6.05-8.9,7.5-1.45m-6.4-10.7,3.2-2.15m-37.8-6v4.65m-10.35-4.3-6.4,3.25m7.85,12.45-.75-6M287,135.46l.35-5.75m6.05,15.35-7.5-2.85m30.7-7.5,3.2-1.05m-3.95-5.7h4.3m-5,18.9h7.15m-23.2-4,7.5-.35m-3.95-10,6.8-4.6m-20.7,35.3-4.25-2.85m15.3,2.5L296.28,164m11.4-6.75.35,4.6M298.08,154l-5.35-2.1m27.45-11.45h7.15m-53.85-29.95-5-1.4m12.1,6.75-5.35-.35M257.43,133l.35-1.8m-7.85.7,2.85-.7m2.5,6.05,5-2.15m-2.5,9.65,2.85-2.15m-11.45,0v-2.15m5,7.5-3.9-.35m-5-23.2h3.2M264.18,144h2.5m15.7-6.1-5,1.45m-10.7-.35,1.8-4.65m3.2-2.5-1.8.7M268.48,119l-7.85,1.1m5-19.25L261,99.76m-27.85,7.5-1-3.9m-4.3,6.75-2.45-2.5m9.25,13.9,3.9-2.85m-20.3-.7-5.35-5m8.9,16h-8.2m25.7,17.5-3.2-.35m4.6-12.15-1.75-2.5m-3.6.35-.7-6.05m-5.35,16.75-5-.35m12.5.7,3.2-6M223.88,113l-2.5-1m7.85,22.45-6.4.35m17.8,15.7-3.2,1.05m34.95,5.35-3.2.75m-22.85-7.15-2.5,2.15m4.3.35-2.85,1.8m35.3-1.1-5,.75m-9.25-4.65-2.15,3.2m-6.4-1-.35,1.75m-14.3-39.55,4.3-2.15m-3.2,34.25-2.5-2.9M352.63,103l2.85-5.35m-67.05,2.5-2.85-1.75m-12.5-2.5-2.5,3.2m-30.65,2.15V97.26m5,8.2,1-6.75m117.7-19.25,1.8-2.85m-1.8,12.8,2.85-1.4m-4.6-29.6h4.25" transform="translate(-24.53 -11.21)"/><g id="Layer0_4_FILL" data-name="Layer0 4 FILL"><path class="cls-5" d="M25,216.56q0,1.35,12.35,2.3t29.85.95q15.9,0,27.55-.8c.78,0,1.54-.09,2.3-.15a68.91,68.91,0,0,0,10.55-1.35c1.2-.29,1.8-.61,1.8-.95q0-1.35-12.35-2.3t-29.85-.95q-17.51,0-29.85.95T25,216.56m329.5-3.6a115.3,115.3,0,0,0-31,0c-4.27.73-6.4,1.62-6.4,2.65,0,.73,1.06,1.38,3.2,1.95.89.23,2,.45,3.2.65a76.09,76.09,0,0,0,9.55.95q2.85.15,6,.15a93.65,93.65,0,0,0,15.5-1.1q6.45-1.05,6.45-2.6c0-1-2.15-1.92-6.45-2.65m-92.65,3.75a20.29,20.29,0,0,0,3.65-1c1.13-.48,1.7-1,1.7-1.6,0-1-1.79-1.92-5.35-2.65a79.77,79.77,0,0,0-25.8,0c-3.57.73-5.35,1.62-5.35,2.65,0,.44.33.86,1,1.25a15.11,15.11,0,0,0,4.35,1.35,76.19,76.19,0,0,0,25.8,0m3.65-1a20.29,20.29,0,0,1-3.65,1,76.19,76.19,0,0,1-25.8,0,15.11,15.11,0,0,1-4.35-1.35q-8.76,0-18-.05-49.56,0-84.6,1.2-13.25.47-21.5,1a68.91,68.91,0,0,1-10.55,1.35c-.76.06-1.52.11-2.3.15-.47.17-.7.34-.7.5q0,1.76,35.05,3t84.6,1.25q49.54,0,84.6-1.25t35.05-3c0-.11-.12-.23-.35-.35a76.09,76.09,0,0,1-9.55-.95c-1.24-.2-2.31-.42-3.2-.65q-8.31-.57-21.95-1.05Q283.26,216,265.53,215.71Z" transform="translate(-24.53 -11.21)"/></g><path id="Layer0_4_1_STROKES" data-name="Layer0 4 1 STROKES" class="cls-6" d="M265.53,215.71a20.29,20.29,0,0,1-3.65,1,76.19,76.19,0,0,1-25.8,0,15.11,15.11,0,0,1-4.35-1.35q-8.76,0-18-.05-49.56,0-84.6,1.2-13.25.47-21.48,1a71.59,71.59,0,0,1-10.57,1.33l-2.3.17c-.47.16-.7.32-.7.48q0,1.76,35.05,3t84.6,1.25q49.54,0,84.6-1.25t35.05-3q0-.16-.33-.33a79.91,79.91,0,0,1-9.57-1c-1.24-.2-2.3-.42-3.18-.65q-8.32-.57-22-1.05-15.07-.51-32.8-.8c1.13-.48,1.7-1,1.7-1.6,0-1-1.79-1.92-5.35-2.65a79.77,79.77,0,0,0-25.8,0c-3.57.73-5.35,1.62-5.35,2.65,0,.44.33.86,1,1.25m88.57,2.2c-2.15-.57-3.22-1.22-3.22-1.95,0-1,2.13-1.92,6.4-2.65a115.3,115.3,0,0,1,31,0c4.3.73,6.45,1.62,6.45,2.65s-2.15,1.9-6.45,2.6a93.65,93.65,0,0,1-15.5,1.1q-3.15,0-6-.13M94.78,219q-11.65.78-27.55.78-17.51,0-29.85-.95T25,216.56q0-1.35,12.35-2.3t29.85-.95q17.49,0,29.85.95t12.35,2.3c0,.34-.6.67-1.78,1" transform="translate(-24.53 -11.21)"/><g id="Layer0_5_FILL" data-name="Layer0 5 FILL"><path class="cls-7" d="M267.48,181.41l7.75,36.15h28.85l8.3-36.15Z" transform="translate(-24.53 -11.21)"/><path class="cls-8" d="M315.28,181.41l2.5-8.75h-56.3l2.15,8.75h51.65Z" transform="translate(-24.53 -11.21)"/></g><g id="Layer0_6_FILL" data-name="Layer0 6 FILL"><path class="cls-9" d="M74.63,54.11a11.17,11.17,0,0,0-3.35,8.15,11,11,0,0,0,3.15,7.9l25.9,24.2a7.44,7.44,0,0,0,4.25,2,21.76,21.76,0,0,0,4.4.25,2.86,2.86,0,0,0,2.7-1.7,3.55,3.55,0,0,0,.25-2.95c-.36-.87-.94-2.22-1.75-4.05s-1.57-3.36-2.25-4.7q-6.44-12.63-14.5-25.7c-.3-.5-.67-1.08-1.1-1.75a14.63,14.63,0,0,0-1.45-1.7,11.07,11.07,0,0,0-8.1-3.35A11.2,11.2,0,0,0,74.63,54.11Z" transform="translate(-24.53 -11.21)"/></g><g id="Layer0_7_FILL" data-name="Layer0 7 FILL"><path class="cls-10" d="M80.58,32.46q-3.33,6.7-6.2,11.6l17.4,12.4q-4.43-9.47-1.7-16.9Z" transform="translate(-24.53 -11.21)"/></g><g id="Layer0_8_FILL" data-name="Layer0 8 FILL"><path class="cls-11" d="M99.83,29.86a22,22,0,0,0,1.8-4l-13.45-5.7q-9.25.6-8.1,11.2l3.4,4v4a36.26,36.26,0,0,0,10.45,5.9l2.85-5.75a6.84,6.84,0,0,0,2.85,0C100.16,37.64,100.23,34.43,99.83,29.86Z" transform="translate(-24.53 -11.21)"/></g><g id="Layer0_9_FILL" data-name="Layer0 9 FILL"><path class="cls-12" d="M94,12.16a12.68,12.68,0,0,0-9.65,0q-5.8,2.1-9.15,8.5a13.61,13.61,0,0,0,0,9.5q2.55,5.9,1.8,9.15,1.74-2.2,8.65-5.75c-1.94.6-3.07.6-3.4,0q-1.8-1.8,0-5.4c1.5-2,3-2,4.55,0A7.83,7.83,0,0,0,91.08,24h3q-2.25,4.45,0,7.8,1.74-3.3,8-4.9,5.64,2.2,2.3-7.35Q101.72,15,94,12.16Z" transform="translate(-24.53 -11.21)"/></g><g id="Layer0_10_FILL" data-name="Layer0 10 FILL"><path class="cls-13" d="M152.88,97.41,143.43,96l-1.5,7.55,11.3-1.15.05-.15v.05a27.76,27.76,0,0,0,7.3,3.75,38,38,0,0,0,5.4,1.45c1.1.07,1.41-.4,1-1.4l-3.35-1.9a3.53,3.53,0,0,1-1.05-2.55c2-.07,4.46.68,7.4,2.25l3.95,4c1.36.57,2.18.6,2.45.1a29.25,29.25,0,0,0-3.7-5.7,31.48,31.48,0,0,0-8.4-4.9,42.26,42.26,0,0,1-10.1.35l-1-.2A.46.46,0,0,1,152.88,97.41Z" transform="translate(-24.53 -11.21)"/></g><g id="Layer0_11_FILL" data-name="Layer0 11 FILL"><path class="cls-9" d="M101.18,88.91a8.22,8.22,0,0,0-4.1,5,7.93,7.93,0,0,0,.55,6.35,8.47,8.47,0,0,0,4.55,4q7.14,3,42.8-.25a10,10,0,0,1,.4-8l-37.95-7.8a5.21,5.21,0,0,0-1-.2A8.27,8.27,0,0,0,101.18,88.91Z" transform="translate(-24.53 -11.21)"/></g><g id="Layer0_12_FILL" data-name="Layer0 12 FILL"><path class="cls-11" d="M151.78,86.36l-11.2.5v8.85L153,91.86v-.15a0,0,0,0,0,.05,0,29.27,29.27,0,0,0,9,2.65,40,40,0,0,0,6.45.5c1.26-.24,1.53-.86.8-1.85l-4.25-1.45A3.92,3.92,0,0,1,163.38,89c2.25-.6,5.2-.31,8.85.85l5.15,3.45.25.1c1.62.38,2.54.25,2.75-.4a33.18,33.18,0,0,0-5.5-5.65,36.74,36.74,0,0,0-10.55-3.6A41.67,41.67,0,0,1,153,86.26a14.13,14.13,0,0,1-1.45.1Z" transform="translate(-24.53 -11.21)"/></g><g id="Layer0_13_MEMBER_0_MEMBER_0_FILL" data-name="Layer0 13 MEMBER 0 MEMBER 0 FILL"><path class="cls-14" d="M213.43,113.56H210v89.35h3.4Z" transform="translate(-24.53 -11.21)"/></g><g id="Layer0_13_MEMBER_0_MEMBER_1_FILL" data-name="Layer0 13 MEMBER 0 MEMBER 1 FILL"><path class="cls-15" d="M220,201.06h-16.5v4.5H220Z" transform="translate(-24.53 -11.21)"/></g><g id="Layer0_13_MEMBER_0_MEMBER_2_FILL" data-name="Layer0 13 MEMBER 0 MEMBER 2 FILL"><path class="cls-16" d="M226,211.56v-6h-27.5v6Z" transform="translate(-24.53 -11.21)"/></g><g id="Layer0_13_MEMBER_0_MEMBER_3_FILL" data-name="Layer0 13 MEMBER 0 MEMBER 3 FILL"><path class="cls-17" d="M238.48,217.81v-7.5H186.73v7.5Z" transform="translate(-24.53 -11.21)"/></g><g id="Layer0_13_MEMBER_1_FILL" data-name="Layer0 13 MEMBER 1 FILL"><path class="cls-14" d="M321.58,115.86v-6h-218v6Z" transform="translate(-24.53 -11.21)"/><path class="cls-8" d="M321.58,109.86v-2h-218v2Z" transform="translate(-24.53 -11.21)"/></g><g id="Layer0_14_FILL" data-name="Layer0 14 FILL"><path class="cls-18" d="M98,92.91a8.25,8.25,0,0,0-2.45,6,8.07,8.07,0,0,0,2.45,6,8.25,8.25,0,0,0,5.5,2.5q7.74.75,40.85-12.9a10,10,0,0,1-2-7.8l-38.6,3.8a4.78,4.78,0,0,0-1,.1A8.15,8.15,0,0,0,98,92.91Z" transform="translate(-24.53 -11.21)"/></g><g id="Layer0_15_FILL" data-name="Layer0 15 FILL"><path class="cls-11" d="M75.18,206.31l2.35,5.5,11.1-7.4L84,195.76Z" transform="translate(-24.53 -11.21)"/></g><g id="Layer0_16_FILL" data-name="Layer0 16 FILL"><path class="cls-19" d="M132.43,173.66a12.47,12.47,0,0,0,4-14.85,11.84,11.84,0,0,0-6.75-6.65,12.19,12.19,0,0,0-9.5.05,13.6,13.6,0,0,0-3.35,2.1q-25.71,21.56-37.45,46.6,4.8,3.65,5.25,7.25A527.86,527.86,0,0,1,132.43,173.66Z" transform="translate(-24.53 -11.21)"/></g><g id="Layer0_17_FILL" data-name="Layer0 17 FILL"><path class="cls-20" d="M69,121.16l-19.45-15.4Q37.69,124.85,38,145.66t32.7,21.45a162.79,162.79,0,0,0,60.85-9.9q4.5-14.1-13-21.75T69,121.16Z" transform="translate(-24.53 -11.21)"/></g><g id="Layer0_18_FILL" data-name="Layer0 18 FILL"><path class="cls-21" d="M66.38,123.66l-21.8-11.8q-9.31,19.49-1.2,36.15t39.4,17.15q31.34.51,50.2-21.1,3.24-10.42-15.3-14.9T66.38,123.66Z" transform="translate(-24.53 -11.21)"/></g><g id="Layer0_19_MEMBER_0_FILL" data-name="Layer0 19 MEMBER 0 FILL"><path class="cls-22" d="M76,40.61l-1.4,1.8L90.08,52v-3.8Z" transform="translate(-24.53 -11.21)"/></g><g id="Layer0_19_MEMBER_1_FILL" data-name="Layer0 19 MEMBER 1 FILL"><path class="cls-23" d="M74.58,41.66a23.48,23.48,0,0,0-10.4,7.55Q45,72.67,38.78,105.06q-2.1,12,3.2,17,12.3,7.6,54.8,3.8,1.38-32.1-5.35-73Q82.43,45.09,74.58,41.66Z" transform="translate(-24.53 -11.21)"/></g><g id="Layer0_20_FILL" data-name="Layer0 20 FILL"><path class="cls-18" d="M79.78,48a19.78,19.78,0,0,0-2.45-.15,17.58,17.58,0,0,0-17.6,17.6,15.75,15.75,0,0,0,1.45,6.6,27.72,27.72,0,0,0,3.7,5.85,85.46,85.46,0,0,0,10.75,11.3q7.65,6.6,23,16.45A7.94,7.94,0,0,0,103,107a8.37,8.37,0,0,0,8.25-8.25,6.83,6.83,0,0,0-.5-2.4q-.6-1.45-.9-2.25-6.3-17.5-10.4-26.15Q94.57,57.56,89.78,53A17.5,17.5,0,0,0,79.78,48Z" transform="translate(-24.53 -11.21)"/></g><g id="Layer0_21_FILL" data-name="Layer0 21 FILL"><path class="cls-11" d="M167.78,205.66a74.73,74.73,0,0,0,9.95,8.8l2.75-2.15-5.6-11.25Z" transform="translate(-24.53 -11.21)"/></g><g id="Layer0_22_FILL" data-name="Layer0 22 FILL"><path class="cls-21" d="M132.43,136.81a9.27,9.27,0,0,0-4.3-3.3,9.06,9.06,0,0,0-8.75,1,12.53,12.53,0,0,0-5.1,7.6,27.1,27.1,0,0,0-1,7.7,11.52,11.52,0,0,0,1.15,4.55q1,1.77,3.2,5.45a76.78,76.78,0,0,0,8.15,10.25,296.21,296.21,0,0,0,21.3,21,241.77,241.77,0,0,0,25,19.1q1.4-4.4,4.65-5.7Q159.13,172.21,132.43,136.81Z" transform="translate(-24.53 -11.21)"/></g><g id="Layer0_23_FILL" data-name="Layer0 23 FILL"><path class="cls-14" d="M176.08,213.31l1,3.85,11.7-5.25-9.25-1.45Z" transform="translate(-24.53 -11.21)"/></g><g id="Layer0_24_MEMBER_0_FILL" data-name="Layer0 24 MEMBER 0 FILL"><path class="cls-12" d="M187.68,109.46a21.68,21.68,0,0,0,3.25-.4v-2.9h-62.6q-4.35,1.4-4.4,3.3Z" transform="translate(-24.53 -11.21)"/></g><g id="Layer0_24_MEMBER_1_FILL" data-name="Layer0 24 MEMBER 1 FILL"><path class="cls-12" d="M231.13,47.86l-4.65,1.7L189.88,106h-.45v3.6a8.67,8.67,0,0,0,5.2-3.6Z" transform="translate(-24.53 -11.21)"/></g><g id="Layer0_25_FILL" data-name="Layer0 25 FILL"><path class="cls-2" d="M39.63,165.21v2.4h49v-2.4Z" transform="translate(-24.53 -11.21)"/><path class="cls-1" d="M39.63,167.61V170h49v-2.4Z" transform="translate(-24.53 -11.21)"/></g><g id="Layer0_26_FILL" data-name="Layer0 26 FILL"><path class="cls-2" d="M31.33,112.21l-1.9-.95L42,167.66H44Z" transform="translate(-24.53 -11.21)"/><path class="cls-1" d="M29.43,111.26l-3.3-1.55L39.63,170h.85l2-.35-.45-2Z" transform="translate(-24.53 -11.21)"/></g><g id="Layer0_27_FILL" data-name="Layer0 27 FILL"><path class="cls-24" d="M64.58,172.36h-1.8v39.1h1.8Z" transform="translate(-24.53 -11.21)"/></g><g id="Layer0_28_FILL" data-name="Layer0 28 FILL"><path class="cls-25" d="M63.78,210.56l-.05-.25-16.2,4.3.3,1.15,16-4.25,16,4.3.3-1.15-16.2-4.35Z" transform="translate(-24.53 -11.21)"/></g><g id="Layer0_29_FILL" data-name="Layer0 29 FILL"><path class="cls-25" d="M73.78,170h-20v2.8h20Z" transform="translate(-24.53 -11.21)"/></g><g id="Layer0_30_FILL" data-name="Layer0 30 FILL"><path class="cls-25" d="M65.38,175.46h-3.2v12h3.2v-12m0,21.7h-3.2v12h3.2Z" transform="translate(-24.53 -11.21)"/></g><g id="Layer0_31_FILL" data-name="Layer0 31 FILL"><path class="cls-12" d="M51.63,218a1.56,1.56,0,0,0,.6-1.25,1.71,1.71,0,0,0-.6-1.3,1.62,1.62,0,0,0-1.25-.55,1.93,1.93,0,0,0-1.35.55,1.84,1.84,0,0,0-.5,1.3A1.67,1.67,0,0,0,49,218a1.87,1.87,0,0,0,1.35.6,1.57,1.57,0,0,0,1.25-.6m27.1,0a1.71,1.71,0,0,0,.6-1.3,1.81,1.81,0,0,0-.6-1.3,1.62,1.62,0,0,0-1.25-.55,1.79,1.79,0,0,0-1.85,1.85,1.84,1.84,0,0,0,.5,1.3,1.93,1.93,0,0,0,1.35.55A1.62,1.62,0,0,0,78.73,218Z" transform="translate(-24.53 -11.21)"/></g><g id="Layer0_32_FILL" data-name="Layer0 32 FILL"><path class="cls-14" d="M77,204.51l-4,2.65L79.33,219l-.2-9.25Z" transform="translate(-24.53 -11.21)"/></g></svg>